<?xml version="1.0" encoding="utf-8"?>
<!-- Generator: Adobe Illustrator 27.0.0, SVG Export Plug-In . SVG Version: 6.00 Build 0)  -->
<svg version="1.2" baseProfile="tiny" id="DME_Logo"
	 xmlns="http://www.w3.org/2000/svg" xmlns:xlink="http://www.w3.org/1999/xlink" x="0px" y="0px" viewBox="0 0 597 50"
	 overflow="visible" xml:space="preserve">
<g id="Data_Management_Environment">
	<path fill="#606161" d="M86.6,30.7c1.1,1,1.6,2.3,1.6,4.1c0,1.7-0.5,3.1-1.6,4.1c-1,1-2.6,1.5-4.8,1.5h-3.8V29.2h4
		C84,29.2,85.5,29.7,86.6,30.7z M84.8,37.3c0.6-0.6,0.9-1.4,0.9-2.5s-0.3-1.9-0.9-2.5c-0.6-0.6-1.6-0.9-2.8-0.9h-1.4v6.8h1.6
		C83.3,38.2,84.2,37.9,84.8,37.3z"/>
	<path fill="#606161" d="M97.3,40.4h-2.3v-1c-0.6,0.8-1.4,1.2-2.3,1.2c-0.9,0-1.7-0.3-2.3-0.8c-0.6-0.5-0.9-1.2-0.9-2.1s0.3-1.5,1-2
		c0.6-0.4,1.5-0.7,2.6-0.7h1.8v0c0-0.9-0.5-1.4-1.5-1.4c-0.4,0-0.9,0.1-1.3,0.2c-0.5,0.2-0.9,0.4-1.2,0.6l-1.1-1.6
		c1.1-0.8,2.4-1.2,3.9-1.2c1,0,1.9,0.3,2.6,0.8c0.7,0.5,1,1.3,1,2.5V40.4z M94.9,37.1v-0.4h-1.5c-1,0-1.4,0.3-1.4,0.9
		c0,0.3,0.1,0.5,0.3,0.7s0.6,0.2,1,0.2s0.8-0.1,1.1-0.4C94.7,37.9,94.9,37.5,94.9,37.1z"/>
	<path fill="#606161" d="M102.3,33.5v3.9c0,0.3,0.1,0.6,0.3,0.8s0.4,0.3,0.6,0.3c0.4,0,0.8-0.2,1.1-0.6l0.9,1.7
		c-0.7,0.7-1.5,1-2.4,1c-0.8,0-1.5-0.3-2.1-0.8c-0.6-0.5-0.9-1.3-0.9-2.2v-4h-1v-1.7h1v-2.6h2.4v2.6h2.1v1.7H102.3z"/>
	<path fill="#606161" d="M113.8,40.4h-2.3v-1c-0.6,0.8-1.4,1.2-2.3,1.2c-0.9,0-1.7-0.3-2.3-0.8c-0.6-0.5-0.9-1.2-0.9-2.1
		s0.3-1.5,1-2c0.6-0.4,1.5-0.7,2.6-0.7h1.8v0c0-0.9-0.5-1.4-1.5-1.4c-0.4,0-0.9,0.1-1.3,0.2c-0.5,0.2-0.9,0.4-1.2,0.6l-1.1-1.6
		c1.1-0.8,2.4-1.2,3.9-1.2c1,0,1.9,0.3,2.6,0.8c0.7,0.5,1,1.3,1,2.5V40.4z M111.4,37.1v-0.4h-1.5c-1,0-1.4,0.3-1.4,0.9
		c0,0.3,0.1,0.5,0.3,0.7s0.6,0.2,1,0.2s0.8-0.1,1.1-0.4C111.2,37.9,111.4,37.5,111.4,37.1z"/>
	<path fill="#606161" d="M130.4,33.3l-3,6.1h-1.5l-3-6.1v7h-2.5V29.2h3.4l2.9,6.1l2.9-6.1h3.4v11.2h-2.5V33.3z"/>
	<path fill="#606161" d="M142.8,40.4h-2.3v-1c-0.6,0.8-1.4,1.2-2.3,1.2c-0.9,0-1.7-0.3-2.3-0.8c-0.6-0.5-0.9-1.2-0.9-2.1
		s0.3-1.5,1-2c0.6-0.4,1.5-0.7,2.6-0.7h1.8v0c0-0.9-0.5-1.4-1.5-1.4c-0.4,0-0.9,0.1-1.3,0.2c-0.5,0.2-0.9,0.4-1.2,0.6l-1.1-1.6
		c1.1-0.8,2.4-1.2,3.9-1.2c1,0,1.9,0.3,2.6,0.8c0.7,0.5,1,1.3,1,2.5V40.4z M140.3,37.1v-0.4h-1.5c-1,0-1.4,0.3-1.4,0.9
		c0,0.3,0.1,0.5,0.3,0.7s0.6,0.2,1,0.2s0.8-0.1,1.1-0.4C140.2,37.9,140.3,37.5,140.3,37.1z"/>
	<path fill="#606161" d="M147.4,35.6v4.8H145v-8.6h2.4v1c0.7-0.7,1.5-1.1,2.4-1.1c0.9,0,1.7,0.3,2.3,1c0.6,0.6,0.9,1.5,0.9,2.6v5.2
		h-2.4v-4.9c0-1.3-0.5-2-1.5-2c-0.5,0-0.9,0.2-1.3,0.5S147.4,34.9,147.4,35.6z"/>
	<path fill="#606161" d="M162.5,40.4h-2.3v-1c-0.6,0.8-1.4,1.2-2.3,1.2c-0.9,0-1.7-0.3-2.3-0.8c-0.6-0.5-0.9-1.2-0.9-2.1
		s0.3-1.5,1-2c0.6-0.4,1.5-0.7,2.6-0.7h1.8v0c0-0.9-0.5-1.4-1.5-1.4c-0.4,0-0.9,0.1-1.3,0.2c-0.5,0.2-0.9,0.4-1.2,0.6l-1.1-1.6
		c1.1-0.8,2.4-1.2,3.9-1.2c1,0,1.9,0.3,2.6,0.8c0.7,0.5,1,1.3,1,2.5V40.4z M160.1,37.1v-0.4h-1.5c-1,0-1.4,0.3-1.4,0.9
		c0,0.3,0.1,0.5,0.3,0.7s0.6,0.2,1,0.2s0.8-0.1,1.1-0.4C159.9,37.9,160.1,37.5,160.1,37.1z"/>
	<path fill="#606161" d="M171.1,38.9c-0.8,0.8-1.7,1.3-2.8,1.3c-1.1,0-2.1-0.4-2.8-1.1s-1.2-1.8-1.2-3.1s0.4-2.3,1.2-3.1
		c0.8-0.8,1.7-1.2,2.7-1.2c1,0,1.9,0.4,2.5,1.3v-1.1h2.4v7.5c0,0.8-0.1,1.5-0.4,2s-0.6,1.1-1.1,1.4c-0.9,0.7-1.9,1.1-3.1,1.1
		c-0.6,0-1.3-0.1-2-0.3s-1.3-0.5-1.8-0.9l0.9-1.8c0.8,0.6,1.6,0.9,2.5,0.9c0.9,0,1.6-0.2,2.1-0.7C170.8,40.6,171.1,39.9,171.1,38.9z
		 M170.7,35.9c0-0.7-0.2-1.2-0.6-1.6c-0.4-0.4-0.9-0.6-1.4-0.6s-1.1,0.2-1.5,0.6c-0.4,0.4-0.6,0.9-0.6,1.6s0.2,1.2,0.6,1.7
		c0.4,0.4,0.9,0.6,1.5,0.6c0.6,0,1.1-0.2,1.4-0.6S170.7,36.6,170.7,35.9z"/>
	<path fill="#606161" d="M182.8,39.1c-1,0.9-2.1,1.4-3.4,1.4s-2.4-0.4-3.2-1.2c-0.9-0.8-1.3-1.9-1.3-3.2c0-1.4,0.4-2.4,1.3-3.2
		s1.9-1.2,3.1-1.2s2.2,0.4,3,1.1c0.8,0.7,1.2,1.7,1.2,2.9v1.3h-6.3c0.1,0.5,0.3,0.9,0.7,1.2s0.9,0.4,1.4,0.4c0.8,0,1.5-0.3,2.1-0.8
		L182.8,39.1z M180.5,34c-0.3-0.3-0.7-0.4-1.2-0.4s-0.9,0.1-1.3,0.4c-0.4,0.3-0.6,0.7-0.7,1.2h3.8C181,34.7,180.8,34.3,180.5,34z"/>
	<path fill="#606161" d="M193.1,35.8v4.6h-2.4v-4.7c0-0.7-0.1-1.2-0.3-1.5s-0.5-0.5-1-0.5s-0.9,0.2-1.2,0.5s-0.5,0.9-0.5,1.5v4.6
		h-2.4v-8.6h2.4v1c0.7-0.7,1.4-1.1,2.3-1.1c0.5,0,1,0.2,1.5,0.5c0.4,0.3,0.8,0.7,1,1.2c0.3-0.5,0.8-0.9,1.3-1.2
		c0.6-0.3,1.1-0.4,1.7-0.4c1,0,1.8,0.3,2.4,0.9c0.6,0.6,0.9,1.5,0.9,2.6v5.2h-2.4v-4.7c0-1.3-0.5-2-1.5-2c-0.5,0-0.9,0.2-1.2,0.5
		C193.3,34.6,193.1,35.1,193.1,35.8z"/>
	<path fill="#606161" d="M208.4,39.1c-1,0.9-2.1,1.4-3.4,1.4s-2.4-0.4-3.2-1.2c-0.9-0.8-1.3-1.9-1.3-3.2c0-1.4,0.4-2.4,1.3-3.2
		s1.9-1.2,3.1-1.2s2.2,0.4,3,1.1c0.8,0.7,1.2,1.7,1.2,2.9v1.3h-6.3c0.1,0.5,0.3,0.9,0.7,1.2s0.9,0.4,1.4,0.4c0.8,0,1.5-0.3,2.1-0.8
		L208.4,39.1z M206.1,34c-0.3-0.3-0.7-0.4-1.2-0.4s-0.9,0.1-1.3,0.4c-0.4,0.3-0.6,0.7-0.7,1.2h3.8C206.6,34.7,206.5,34.3,206.1,34z"
		/>
	<path fill="#606161" d="M213.3,35.6v4.8h-2.4v-8.6h2.4v1c0.7-0.7,1.5-1.1,2.4-1.1c0.9,0,1.7,0.3,2.3,1c0.6,0.6,0.9,1.5,0.9,2.6v5.2
		h-2.4v-4.9c0-1.3-0.5-2-1.5-2c-0.5,0-0.9,0.2-1.3,0.5S213.3,34.9,213.3,35.6z"/>
	<path fill="#606161" d="M223.8,33.5v3.9c0,0.3,0.1,0.6,0.3,0.8s0.4,0.3,0.6,0.3c0.4,0,0.8-0.2,1.1-0.6l0.9,1.7
		c-0.7,0.7-1.5,1-2.4,1c-0.8,0-1.5-0.3-2.1-0.8c-0.6-0.5-0.9-1.3-0.9-2.2v-4h-1v-1.7h1v-2.6h2.4v2.6h2.1v1.7H223.8z"/>
	<path fill="#606161" d="M240.5,29.2v2.2H235v2.3h5v2.1h-5v2.3h5.7v2.2h-8.2V29.2H240.5z"/>
	<path fill="#606161" d="M245,35.6v4.8h-2.4v-8.6h2.4v1c0.7-0.7,1.5-1.1,2.4-1.1c0.9,0,1.7,0.3,2.3,1c0.6,0.6,0.9,1.5,0.9,2.6v5.2
		h-2.4v-4.9c0-1.3-0.5-2-1.5-2c-0.5,0-0.9,0.2-1.3,0.5S245,34.9,245,35.6z"/>
	<path fill="#606161" d="M255,40.4l-3.4-8.6h2.5l2.1,5.4l2.1-5.4h2.5l-3.4,8.6H255z"/>
	<path fill="#606161" d="M262.3,30.7c-0.3-0.3-0.4-0.6-0.4-1s0.1-0.7,0.4-1c0.3-0.3,0.6-0.4,1-0.4s0.7,0.1,1,0.4
		c0.3,0.3,0.4,0.6,0.4,1s-0.1,0.7-0.4,1c-0.3,0.3-0.6,0.4-1,0.4S262.5,31,262.3,30.7z M264.5,40.4h-2.4v-8.6h2.4V40.4z"/>
	<path fill="#606161" d="M271.3,33.9c-0.7,0-1.2,0.3-1.6,0.8c-0.4,0.5-0.5,1.2-0.5,2v3.7h-2.4v-8.6h2.4v1.1c0.3-0.4,0.7-0.7,1.2-0.9
		c0.5-0.2,0.9-0.4,1.4-0.4l0,2.3H271.3z"/>
	<path fill="#606161" d="M281.8,36.1c0,1.2-0.4,2.3-1.3,3.2c-0.9,0.9-2,1.3-3.3,1.3c-1.3,0-2.4-0.4-3.3-1.3
		c-0.9-0.9-1.3-1.9-1.3-3.2s0.4-2.3,1.3-3.2c0.9-0.9,1.9-1.3,3.3-1.3c1.3,0,2.4,0.4,3.3,1.3C281.4,33.8,281.8,34.8,281.8,36.1z
		 M275.1,36.1c0,0.7,0.2,1.3,0.6,1.7c0.4,0.4,0.9,0.7,1.5,0.7s1.1-0.2,1.5-0.7c0.4-0.4,0.6-1,0.6-1.7s-0.2-1.3-0.6-1.7
		c-0.4-0.4-0.9-0.7-1.5-0.7s-1.1,0.2-1.5,0.7C275.3,34.8,275.1,35.4,275.1,36.1z"/>
	<path fill="#606161" d="M286,35.6v4.8h-2.4v-8.6h2.4v1c0.7-0.7,1.5-1.1,2.4-1.1c0.9,0,1.7,0.3,2.3,1c0.6,0.6,0.9,1.5,0.9,2.6v5.2
		h-2.4v-4.9c0-1.3-0.5-2-1.5-2c-0.5,0-0.9,0.2-1.3,0.5S286,34.9,286,35.6z"/>
	<path fill="#606161" d="M301.7,35.8v4.6h-2.4v-4.7c0-0.7-0.1-1.2-0.3-1.5s-0.5-0.5-1-0.5s-0.9,0.2-1.2,0.5s-0.5,0.9-0.5,1.5v4.6
		h-2.4v-8.6h2.4v1c0.7-0.7,1.4-1.1,2.3-1.1c0.5,0,1,0.2,1.5,0.5c0.4,0.3,0.8,0.7,1,1.2c0.3-0.5,0.8-0.9,1.3-1.2
		c0.6-0.3,1.1-0.4,1.7-0.4c1,0,1.8,0.3,2.4,0.9c0.6,0.6,0.9,1.5,0.9,2.6v5.2h-2.4v-4.7c0-1.3-0.5-2-1.5-2c-0.5,0-0.9,0.2-1.2,0.5
		C301.9,34.6,301.7,35.1,301.7,35.8z"/>
	<path fill="#606161" d="M317,39.1c-1,0.9-2.1,1.4-3.4,1.4s-2.4-0.4-3.2-1.2c-0.9-0.8-1.3-1.9-1.3-3.2c0-1.4,0.4-2.4,1.3-3.2
		s1.9-1.2,3.1-1.2s2.2,0.4,3,1.1c0.8,0.7,1.2,1.7,1.2,2.9v1.3h-6.3c0.1,0.5,0.3,0.9,0.7,1.2s0.9,0.4,1.4,0.4c0.8,0,1.5-0.3,2.1-0.8
		L317,39.1z M314.7,34c-0.3-0.3-0.7-0.4-1.2-0.4s-0.9,0.1-1.3,0.4c-0.4,0.3-0.6,0.7-0.7,1.2h3.8C315.2,34.7,315,34.3,314.7,34z"/>
	<path fill="#606161" d="M321.8,35.6v4.8h-2.4v-8.6h2.4v1c0.7-0.7,1.5-1.1,2.4-1.1c0.9,0,1.7,0.3,2.3,1c0.6,0.6,0.9,1.5,0.9,2.6v5.2
		h-2.4v-4.9c0-1.3-0.5-2-1.5-2c-0.5,0-0.9,0.2-1.3,0.5S321.8,34.9,321.8,35.6z"/>
	<path fill="#606161" d="M332.4,33.5v3.9c0,0.3,0.1,0.6,0.3,0.8s0.4,0.3,0.6,0.3c0.4,0,0.8-0.2,1.1-0.6l0.9,1.7
		c-0.7,0.7-1.5,1-2.4,1c-0.8,0-1.5-0.3-2.1-0.8c-0.6-0.5-0.9-1.3-0.9-2.2v-4h-1v-1.7h1v-2.6h2.4v2.6h2.1v1.7H332.4z"/>
</g>
<g id="NCI_00000070092132803313263510000000782199851214801833_">
	<path fill="#BC1F40" d="M84.5,10.4h1.9v8.7h-1.9l-4.1-5.4v5.4h-1.9v-8.7h1.8l4.3,5.6V10.4z"/>
	<path fill="#BC1F40" d="M94.8,19.1L94,17.2h-3.6l-0.8,1.9h-2.1l3.8-8.7h1.9l3.8,8.7L94.8,19.1L94.8,19.1z M92.2,13l-1.1,2.5h2.2
		L92.2,13z"/>
	<path fill="#BC1F40" d="M100.9,12.1v7H99v-7h-2.5v-1.7h6.9v1.7H100.9z"/>
	<path fill="#BC1F40" d="M104.8,10.4h1.9v8.7h-1.9V10.4z"/>
	<path fill="#BC1F40" d="M116.2,17.9c-0.9,0.9-2,1.3-3.2,1.3s-2.4-0.4-3.2-1.3c-0.9-0.9-1.3-1.9-1.3-3.2s0.4-2.3,1.3-3.2
		c0.9-0.9,2-1.3,3.2-1.3s2.4,0.4,3.2,1.3c0.9,0.9,1.3,1.9,1.3,3.2S117.1,17,116.2,17.9z M115.5,14.7c0-0.8-0.2-1.4-0.7-2
		c-0.5-0.5-1.1-0.8-1.8-0.8s-1.3,0.3-1.8,0.8c-0.5,0.5-0.7,1.2-0.7,2c0,0.8,0.2,1.4,0.7,2c0.5,0.5,1.1,0.8,1.8,0.8s1.3-0.3,1.8-0.8
		C115.3,16.1,115.5,15.4,115.5,14.7z"/>
	<path fill="#BC1F40" d="M125.2,10.4h1.9v8.7h-1.9l-4.1-5.4v5.4h-1.9v-8.7h1.8l4.3,5.6V10.4z"/>
	<path fill="#BC1F40" d="M135.5,19.1l-0.8-1.9H131l-0.8,1.9h-2.1l3.8-8.7h1.9l3.8,8.7L135.5,19.1L135.5,19.1z M132.9,13l-1.1,2.5
		h2.2L132.9,13z"/>
	<path fill="#BC1F40" d="M138.6,19.1v-8.7h1.9v7h3.7v1.7L138.6,19.1L138.6,19.1z"/>
	<path fill="#BC1F40" d="M152.9,17.3c1,0,1.7-0.4,2.3-1.1l1.2,1.3c-1,1.1-2.1,1.7-3.5,1.7s-2.4-0.4-3.3-1.3
		c-0.9-0.8-1.3-1.9-1.3-3.2c0-1.3,0.4-2.4,1.3-3.2c0.9-0.9,2-1.3,3.2-1.3c1.4,0,2.6,0.5,3.6,1.6l-1.2,1.4c-0.6-0.8-1.4-1.1-2.3-1.1
		c-0.7,0-1.4,0.2-1.9,0.7c-0.5,0.5-0.8,1.1-0.8,1.9s0.2,1.5,0.7,1.9C151.6,17.1,152.2,17.3,152.9,17.3z"/>
	<path fill="#BC1F40" d="M164.1,19.1l-0.8-1.9h-3.6l-0.8,1.9h-2.1l3.8-8.7h1.9l3.8,8.7L164.1,19.1L164.1,19.1z M161.5,13l-1.1,2.5
		h2.2L161.5,13z"/>
	<path fill="#BC1F40" d="M173.3,10.4h1.9v8.7h-1.9l-4.1-5.4v5.4h-1.9v-8.7h1.8l4.3,5.6V10.4z"/>
	<path fill="#BC1F40" d="M181.4,17.3c1,0,1.7-0.4,2.3-1.1l1.2,1.3c-1,1.1-2.1,1.7-3.5,1.7c-1.3,0-2.4-0.4-3.3-1.3
		c-0.9-0.8-1.3-1.9-1.3-3.2c0-1.3,0.4-2.4,1.3-3.2c0.9-0.9,2-1.3,3.2-1.3c1.4,0,2.6,0.5,3.6,1.6l-1.2,1.4c-0.6-0.8-1.4-1.1-2.3-1.1
		c-0.7,0-1.4,0.2-1.9,0.7c-0.5,0.5-0.8,1.1-0.8,1.9s0.2,1.5,0.7,1.9C180.1,17.1,180.7,17.3,181.4,17.3z"/>
	<path fill="#BC1F40" d="M192.7,10.4v1.7h-4.3v1.8h3.9v1.7h-3.9v1.8h4.5v1.7h-6.4v-8.7H192.7z"/>
	<path fill="#BC1F40" d="M201.6,13.3c0,1.4-0.6,2.3-1.7,2.7l2.2,3.1h-2.4l-1.9-2.8h-1.3v2.8h-1.9v-8.7h3.3c1.4,0,2.3,0.2,2.9,0.7
		C201.4,11.5,201.6,12.2,201.6,13.3z M199.3,14.3c0.2-0.2,0.4-0.6,0.4-1c0-0.5-0.1-0.8-0.4-1c-0.2-0.2-0.7-0.3-1.3-0.3h-1.5v2.6h1.4
		C198.6,14.6,199.1,14.5,199.3,14.3z"/>
	<path fill="#BC1F40" d="M206.9,10.4h1.9v8.7h-1.9V10.4z"/>
	<path fill="#BC1F40" d="M217.1,10.4h1.9v8.7h-1.9l-4.1-5.4v5.4H211v-8.7h1.8l4.3,5.6V10.4z"/>
	<path fill="#BC1F40" d="M223.2,12.1c-0.2,0.2-0.3,0.4-0.3,0.6s0.1,0.5,0.3,0.6c0.2,0.1,0.8,0.3,1.6,0.5c0.8,0.2,1.5,0.5,1.9,0.9
		c0.5,0.4,0.7,1,0.7,1.8c0,0.8-0.3,1.4-0.9,1.9c-0.6,0.5-1.4,0.7-2.3,0.7c-1.4,0-2.6-0.5-3.7-1.5l1.2-1.4c0.9,0.8,1.8,1.2,2.6,1.2
		c0.4,0,0.6-0.1,0.8-0.2c0.2-0.2,0.3-0.4,0.3-0.6c0-0.3-0.1-0.5-0.3-0.6c-0.2-0.2-0.6-0.3-1.3-0.5c-1-0.2-1.8-0.6-2.2-0.9
		s-0.7-1-0.7-1.8c0-0.8,0.3-1.5,0.9-1.9c0.6-0.4,1.3-0.7,2.2-0.7c0.6,0,1.2,0.1,1.7,0.3c0.6,0.2,1.1,0.5,1.5,0.8l-1,1.4
		c-0.8-0.6-1.5-0.9-2.3-0.9C223.6,11.9,223.4,12,223.2,12.1z"/>
	<path fill="#BC1F40" d="M232.7,12.1v7h-1.9v-7h-2.5v-1.7h6.9v1.7H232.7z"/>
	<path fill="#BC1F40" d="M236.6,10.4h1.9v8.7h-1.9V10.4z"/>
	<path fill="#BC1F40" d="M244.3,12.1v7h-1.9v-7h-2.5v-1.7h6.9v1.7H244.3z"/>
	<path fill="#BC1F40" d="M250.5,16.8c0.3,0.4,0.8,0.6,1.3,0.6c0.5,0,1-0.2,1.3-0.6c0.3-0.4,0.5-1,0.5-1.6v-4.8h1.9v4.9
		c0,1.3-0.3,2.2-1,2.9c-0.7,0.7-1.6,1-2.7,1c-1.1,0-2-0.3-2.7-1s-1.1-1.6-1.1-2.9v-4.9h1.9v4.8C250,15.9,250.2,16.4,250.5,16.8z"/>
	<path fill="#BC1F40" d="M261.2,12.1v7h-1.9v-7h-2.5v-1.7h6.9v1.7H261.2z"/>
	<path fill="#BC1F40" d="M271.4,10.4v1.7H267v1.8h3.9v1.7H267v1.8h4.5v1.7h-6.4v-8.7H271.4z"/>
</g>
<g id="NIH_Luggage_Tag_00000099630773664447301570000014605425803882886823_">
	<path fill="#BA1F41" d="M57.7,6c-0.9-1.3-2.4-2.2-3.9-2.2h-3.6l12,21.2l-12,21.2h3.6c1.7,0,3.2-0.9,3.9-2.2L68.2,25L57.7,6z"/>
	<path fill="#606162" d="M58.9,25L47.2,3.8H4.7C2,3.8,0.1,5.9,0.1,8.4v33.3c0,2.5,2,4.6,4.6,4.6h42.5L58.9,25z"/>
	<rect x="25.2" y="15.6" fill="#FFFFFF" width="3.2" height="18.8"/>
	<polygon fill="#FFFFFF" points="18.9,15.6 18.9,29.3 10.2,15.6 7.2,15.6 7.2,34.5 10.2,34.5 10.2,20.6 18.9,34.5 22,34.5 22,15.6 	
		"/>
	<polygon fill="#FFFFFF" points="43.2,15.6 43.2,23.4 34.5,23.4 34.5,15.6 31.4,15.6 31.4,34.5 34.5,34.5 34.5,26.6 43.2,26.6 
		43.2,34.5 46.4,34.5 46.4,15.6 	"/>
</g>
</svg>
